<?xml version="1.0" encoding="UTF-8" standalone="no"?>
<!DOCTYPE svg PUBLIC "-//W3C//DTD SVG 1.1//EN"
 "http://www.w3.org/Graphics/SVG/1.1/DTD/svg11.dtd">
<!-- Generated by graphviz version 2.40.1 (20161225.0304)
 -->
<!-- Title: UmlClassDiagram Pages: 1 -->
<svg width="800pt" height="405pt"
 viewBox="0.00 0.00 800.31 405.20" xmlns="http://www.w3.org/2000/svg" xmlns:xlink="http://www.w3.org/1999/xlink">
<g id="graph0" class="graph" transform="scale(1 1) rotate(0) translate(4 401.2)">
<title>UmlClassDiagram</title>
<polygon fill="#ffffff" stroke="transparent" points="-4,4 -4,-401.2 796.3098,-401.2 796.3098,4 -4,4"/>
<!-- 0 -->
<g id="node1" class="node">
<title>0</title>
<polygon fill="#f2f2f2" stroke="#000000" points="0,-120.7 0,-396.7 792.3098,-396.7 792.3098,-120.7 0,-120.7"/>
<text text-anchor="middle" x="396.1549" y="-380.1" font-family="Times,serif" font-size="14.00" fill="#000000">Flashloan</text>
<polyline fill="none" stroke="#000000" points="0,-371.9 792.3098,-371.9 "/>
<text text-anchor="start" x="8" y="-355.3" font-family="Times,serif" font-size="14.00" fill="#000000">Public:</text>
<text text-anchor="start" x="8" y="-338.5" font-family="Times,serif" font-size="14.00" fill="#000000"> &#160;&#160;kyber: IKyberNetworkProxy</text>
<text text-anchor="start" x="8" y="-321.7" font-family="Times,serif" font-size="14.00" fill="#000000"> &#160;&#160;uniswap: IUniswapV2Router02</text>
<text text-anchor="start" x="8" y="-304.9" font-family="Times,serif" font-size="14.00" fill="#000000"> &#160;&#160;weth: IWeth</text>
<text text-anchor="start" x="8" y="-288.1" font-family="Times,serif" font-size="14.00" fill="#000000"> &#160;&#160;dai: IERC20</text>
<text text-anchor="start" x="8" y="-271.3" font-family="Times,serif" font-size="14.00" fill="#000000"> &#160;&#160;beneficiary: address</text>
<text text-anchor="start" x="8" y="-254.5" font-family="Times,serif" font-size="14.00" fill="#000000"> &#160;&#160;KYBER_ETH_ADDRESS: address</text>
<polyline fill="none" stroke="#000000" points="0,-246.3 792.3098,-246.3 "/>
<text text-anchor="start" x="8" y="-229.7" font-family="Times,serif" font-size="14.00" fill="#000000">External:</text>
<text text-anchor="start" x="8" y="-212.9" font-family="Times,serif" font-size="14.00" fill="#000000"> &#160;&#160;&#160;initiateFlashloan(_solo: address, _token: address, _amount: uint, _direction: Direction)</text>
<text text-anchor="start" x="8" y="-196.1" font-family="Times,serif" font-size="14.00" fill="#000000">Public:</text>
<text text-anchor="start" x="8" y="-179.3" font-family="Times,serif" font-size="14.00" fill="#000000"> &#160;&#160;&#160;&lt;&lt;fallback&gt;&gt; ()</text>
<text text-anchor="start" x="8" y="-162.5" font-family="Times,serif" font-size="14.00" fill="#000000"> &#160;&#160;&#160;&lt;&lt;event&gt;&gt; NewArbitrage(direction: Direction, profit: uint, date: uint)</text>
<text text-anchor="start" x="8" y="-145.7" font-family="Times,serif" font-size="14.00" fill="#000000"> &#160;&#160;&#160;constructor(kyberAddress: address, uniswapAddress: address, wethAddress: address, daiAddress: address, beneficiaryAddress: address)</text>
<text text-anchor="start" x="8" y="-128.9" font-family="Times,serif" font-size="14.00" fill="#000000"> &#160;&#160;&#160;callFunction(sender: address, account: Account.Info, data: bytes)</text>
</g>
<!-- 0struct0 -->
<g id="node2" class="node">
<title>0struct0</title>
<polygon fill="#f2f2f2" stroke="#000000" points="260.1447,-.5 260.1447,-83.7 386.1651,-83.7 386.1651,-.5 260.1447,-.5"/>
<text text-anchor="middle" x="323.1549" y="-67.1" font-family="Times,serif" font-size="14.00" fill="#000000">&lt;&lt;struct&gt;&gt;</text>
<text text-anchor="middle" x="323.1549" y="-50.3" font-family="Times,serif" font-size="14.00" fill="#000000">ArbInfo</text>
<polyline fill="none" stroke="#000000" points="260.1447,-42.1 386.1651,-42.1 "/>
<text text-anchor="start" x="268.1447" y="-25.5" font-family="Times,serif" font-size="14.00" fill="#000000">direction: Direction</text>
<text text-anchor="start" x="268.1447" y="-8.7" font-family="Times,serif" font-size="14.00" fill="#000000">repayAmount: uint</text>
</g>
<!-- 0struct0&#45;&gt;0 -->
<g id="edge1" class="edge">
<title>0struct0&#45;&gt;0</title>
<path fill="none" stroke="#000000" d="M337.23,-83.8627C339.8227,-91.5555 342.6619,-99.9797 345.6486,-108.8415"/>
<polygon fill="#000000" stroke="#000000" points="345.6705,-108.9069 351.3774,-113.3151 349.5031,-120.2784 343.7963,-115.8702 345.6705,-108.9069"/>
</g>
<!-- 0enum0 -->
<g id="node3" class="node">
<title>0enum0</title>
<polygon fill="#f2f2f2" stroke="#000000" points="403.8109,-.5 403.8109,-83.7 534.4989,-83.7 534.4989,-.5 403.8109,-.5"/>
<text text-anchor="middle" x="469.1549" y="-67.1" font-family="Times,serif" font-size="14.00" fill="#000000">&lt;&lt;enum&gt;&gt;</text>
<text text-anchor="middle" x="469.1549" y="-50.3" font-family="Times,serif" font-size="14.00" fill="#000000">Direction</text>
<polyline fill="none" stroke="#000000" points="403.8109,-42.1 534.4989,-42.1 "/>
<text text-anchor="start" x="411.8109" y="-25.5" font-family="Times,serif" font-size="14.00" fill="#000000">KyberToUniswap: 0</text>
<text text-anchor="start" x="411.8109" y="-8.7" font-family="Times,serif" font-size="14.00" fill="#000000">UniswapToKyber: 1</text>
</g>
<!-- 0enum0&#45;&gt;0 -->
<g id="edge2" class="edge">
<title>0enum0&#45;&gt;0</title>
<path fill="none" stroke="#000000" d="M455.0798,-83.8627C452.4871,-91.5555 449.6479,-99.9797 446.6612,-108.8415"/>
<polygon fill="#000000" stroke="#000000" points="446.6393,-108.9069 448.5135,-115.8702 442.8067,-120.2784 440.9324,-113.3151 446.6393,-108.9069"/>
</g>
</g>
</svg>
